<?xml version="1.0" encoding="utf-8"?>
<!-- Generator: Adobe Illustrator 22.0.1, SVG Export Plug-In . SVG Version: 6.00 Build 0)  -->
<svg version="1.1" id="Layer_1" xmlns="http://www.w3.org/2000/svg" xmlns:xlink="http://www.w3.org/1999/xlink" x="0px" y="0px"
	 viewBox="0 0 1440 1024" style="enable-background:new 0 0 1440 1024;" xml:space="preserve">
<style type="text/css">
	.st0{fill:#7D7D7D;}
	.st1{fill:#2A2A2A;}
</style>
<rect x="-237.5" y="121.4" class="st0" width="61.3" height="61.3"/>
<rect x="-237.5" y="228.3" class="st1" width="61.3" height="61.3"/>
<g>
	<path class="st1" d="M906.7,329.1c-12.4-10.4-32.6-15.7-60.8-15.7c-27.2,0-51.3,4-72.3,12c-6.1,9.1-9.2,19.3-9.2,30.5
		c0,11.2,3.1,21.2,9.2,29.9c1.4,3.5,5.2,5.3,11.4,5.3c7.9,0,13.7-2.1,17.3-6.3c2.2,10.1,3.2,24,3.2,41.7c0,10.4-0.3,20.5-0.8,30.1
		c0.2,0.2,0.5,0.3,0.7,0.5l0.5,0.4c2.3,1.9,4.3,4.1,5.8,6.6l0.3,0.5c0.9,1.5,1.5,2.9,2,4.3l0.2,0.5l0.1,0.2c0.4,1.2,0.7,2.5,0.9,3.8
		l0.1,0.5c0.2,1.5,0.3,3.1,0.2,4.6l0,0.6c-0.1,2.7-0.7,5.5-1.7,8.3l-0.1,0.3c-0.4,1.2-1,2.4-1.5,3.6l-0.3,0.5
		c-2.7,5.2-6.8,10.1-12.1,14.9l-1.3,1.2c-3.4,17.1-8.1,32.4-14.1,45.6c-2.9,6.4-6,12.2-9.3,17.3l54.4,55.3c2.3-3,4.6-6,6.8-9.2
		c29.5-42,44.2-98.8,44.2-170.4c0-22.3-1.7-42.8-5.1-61.5c3.1,1.1,6.5,1.6,10.3,1.6c9,0,16.3-2.5,21.9-7.4
		c5.6-9.4,8.3-17.3,8.3-23.6C916.1,348,913,339.2,906.7,329.1z"/>
	<path class="st0" d="M830.5,651l-11.9-12.1l-54-54.8L752.7,572l-74.5-75.7c-2.5-3.9-4-7.5-4.8-10.7h90.4c-0.8,3.2-2.3,6.8-4.8,10.7
		c0,0-24.6,34.2-32.8,40.9c4.4,1.2,8.7,2.5,14.8-0.5c3.4-1.7,6.6-3.8,9.5-6.4l32.4-31.1l5.4-5.2c4.1-3.7,7-7.2,8.7-10.4
		c0,0,0-0.1,0.1-0.1c0.3-0.6,0.6-1.3,0.8-1.9c0-0.1,0-0.1,0.1-0.2c0.4-1.2,0.7-2.4,0.7-3.5c0-0.1,0-0.1,0-0.2c0-0.6,0-1.1-0.1-1.6
		c0,0,0-0.1,0-0.1c-0.1-0.5-0.2-1-0.4-1.5c0,0,0,0,0-0.1c-0.2-0.5-0.4-0.9-0.7-1.4c0-0.1-0.1-0.1-0.1-0.2c-0.5-0.9-1.3-1.7-2.1-2.4
		c-0.1-0.1-0.1-0.1-0.2-0.2c-0.4-0.3-0.9-0.7-1.4-1c-0.1,0-0.2-0.1-0.3-0.1c-0.5-0.3-1.1-0.6-1.7-0.8c0,0-0.1,0-0.1-0.1
		c-0.6-0.3-1.3-0.5-2-0.7c-0.1,0-0.3-0.1-0.4-0.1c-0.7-0.2-1.4-0.4-2.2-0.5c0,0,0,0,0,0c-0.1,0-0.2,0-0.3-0.1
		c-0.7-0.1-1.5-0.3-2.3-0.4c-0.1,0-0.3,0-0.4-0.1c-0.9-0.1-1.7-0.2-2.7-0.2c-0.2,0-0.4,0-0.6,0c-1-0.1-2-0.1-3-0.1h-18.4h-31.5
		c0.1-0.4,0.2-0.7,0.2-1.1c0.5-5.7,0.1-13.5-4.3-17.9c-1.8-1.8-3.5-3-5.2-4.1c-2.4-1.6-5.1-3.5-9.6-8.2c-4.9-5.2-4.8-10.9-4.8-11.1
		c0-0.2,0-0.3,0-0.5c0-1.3,0.2-2.5,0.5-3.7c0.6-2.3,1.7-4.3,3.3-6.1c0.1-0.1,0.1-0.1,0.2-0.2c0.2-0.2,0.4-0.4,0.7-0.7
		c0.1-0.1,0.2-0.2,0.3-0.2c0.2-0.2,0.4-0.4,0.7-0.6c0.1-0.1,0.2-0.2,0.3-0.2c0.2-0.2,0.4-0.3,0.7-0.5c0.1-0.1,0.3-0.2,0.4-0.3
		c0.4-0.2,0.7-0.4,1.1-0.6c0.2-0.1,0.4-0.2,0.7-0.3c0.2-0.1,0.4-0.1,0.5-0.2c0.2-0.1,0.5-0.2,0.7-0.3c0.2-0.1,0.4-0.1,0.5-0.2
		c0.3-0.1,0.5-0.1,0.8-0.2c0.2,0,0.3-0.1,0.5-0.1c0.3-0.1,0.6-0.1,0.9-0.1c0.1,0,0.3,0,0.4-0.1c0.5,0,0.9-0.1,1.4-0.1
		c8,0,14.5,6.5,14.5,14.5c0,3.8,3.1,7,7,7c0.4,0,0.9-0.1,1.3-0.1c0.1,0,0.3-0.1,0.4-0.1c0.3-0.1,0.5-0.1,0.8-0.2
		c0.2-0.1,0.3-0.1,0.5-0.2c0.2-0.1,0.4-0.2,0.6-0.3c0.2-0.1,0.3-0.2,0.5-0.3c0.1-0.1,0.2-0.2,0.3-0.3c0.4-0.3,0.7-0.7,1.1-1.1
		c0.1-0.1,0.1-0.1,0.2-0.2c0.2-0.2,0.3-0.5,0.5-0.7c0-0.1,0.1-0.1,0.1-0.2c0.1-0.3,0.3-0.6,0.4-0.9c0,0,0,0,0,0c0,0,0,0,0,0
		c0.3-0.7,0.4-1.5,0.4-2.4c0-0.4,0-0.8-0.1-1.2c0,0,0,0,0,0c0,0,0,0,0,0c-0.1-2-0.4-3.9-0.8-5.7c0,0,0,0,0,0
		c-0.2-0.9-0.5-1.8-0.8-2.7c0,0,0,0,0,0c-0.3-0.9-0.7-1.7-1.1-2.6c0,0,0,0,0,0c0,0,0,0,0,0c-4.6-9.6-14.3-16.2-25.6-16.2
		c-15.6,0-28.3,12.6-28.4,28.2c-0.1,2.2,0,12.4,8.6,21.4c5.5,5.8,9.2,8.3,11.9,10.1c1.3,0.9,2.2,1.5,3,2.3c0.4,0.8,0.8,3.5,0.5,7.1
		c-0.1,0.8,0,1.6,0.2,2.3h-36.4h-17.4c-1.3,0-2.6,0-3.8,0.1c-8,0.5-13.7,2.8-16.4,6.7c-0.5,0.7-0.9,1.5-1.2,2.4
		c-0.1,0.4-0.3,0.9-0.4,1.3c0,0.2-0.1,0.4-0.1,0.6c0,0.2-0.1,0.5-0.1,0.7c0,0.3,0,0.5,0,0.8c0,0.2,0,0.3,0,0.5c0,0.3,0,0.6,0.1,0.9
		c0,0.1,0,0.3,0,0.4c0,0.3,0.1,0.7,0.2,1c0,0.1,0,0.2,0,0.3c0.1,0.4,0.2,0.7,0.3,1.1c0,0.1,0,0.1,0,0.2c0.1,0.4,0.3,0.8,0.4,1.2
		c0,0,0,0.1,0,0.1c0.2,0.4,0.3,0.8,0.5,1.2c0,0,0,0,0,0h0c0.7,1.4,1.5,2.7,2.5,4.1c1.9,2.6,4.4,5.2,7.2,7.7c0,0,6.2,5.8,15.2,14.1
		c17.8,16.5,46.3,43.1,57.6,54.4c3.2,3.2,8.9,8.9,15.9,15.9c3.9,3.9,8.2,8.2,12.7,12.7c18.5,18.5,41,41,55.7,55.7
		c5.1,5.1,9.3,9.3,12,12c2.2,2.2,3.4,3.4,3.4,3.4c4.7,6.1,6.8,13.4,6.4,20.5c-10.6,6.1-24.2,5.6-34.5-2.3c-0.9-0.7-1.8-1.5-2.7-2.3
		c-2.1-2-4-4.2-5.6-6.6c1.1-3.3,2.7-6.5,4.9-9.4l5.2-6.9l6.3-8.3H794c0,0-7.7-0.2-11.7,3.8c-4,4-5.6,7.9-6.6,10.9
		c-0.7,1.9-1.1,3.9-1.4,6c-0.4,3.8-0.1,7.7,1,11.5c-11,9.6-27.6,10.5-39.6,1.3c-1.6-1.3-3.2-2.7-4.6-4.1c-1.4-1.5-2.6-3-3.7-4.7
		c1.1-3.3,2.7-6.5,4.9-9.4l29.3-31.9h-8.4c0,0-7.7-0.2-11.7,3.8c-3.6,3.6-16.9,16.4-19.4,18.8c0,0,0-0.1,0-0.1l-0.4,0.5
		c-5,6.5-6.7,14.3-5.6,21.9c0.2,1.2,0.4,2.4,0.7,3.5c-6.8,6.3-16,9.1-24.9,8c-5.2-0.6-10.4-2.6-14.9-6c-0.1-0.1-0.2-0.2-0.4-0.2
		c-3.3-2.5-6.1-5.5-8.3-8.9c1.1-3.3,2.7-6.5,4.9-9.4l1.5-1.7l34.7-39.2h-8.4c0,0-7.7-0.2-11.7,3.8c-3.7,3.7-23.4,24.6-26.3,27.7
		c0,0,0-0.1,0-0.1l-0.2,0.3l-0.2,0.2c-3.8,4.9-5.6,10.5-5.9,16.2c-0.1,3.1,0.2,6.3,1,9.4c-11,10-27.8,11-40,1.7
		c-3.1-2.4-6-5.3-8.4-8.4c1.1-3.5,2.7-6.8,5.1-9.8l14-15.4l11.4-12.6l48.4-53.2l11.4-12.5l7.7-8.4h-8.4c0,0-3.3-0.1-6.7,0.7
		c-2.4,0.5-4.9,1.4-6.5,3.1c-0.6,0.6-3.2,3.3-6.9,7.3c-3.5-4.1-6.9-8.8-10.2-13.9c-1.2-1.9-2.4-3.8-3.5-5.7
		c-6.1-10.2-11.1-21.6-15.1-34.1c-6.3-5.9-10.8-10-11.7-10.8c-6.2-5.5-10.8-11.2-13.6-16.9l-0.3-0.5l-0.1-0.2
		c-0.3-0.6-0.5-1.2-0.8-1.8l-0.1-0.2c-0.3-0.8-0.6-1.6-0.8-2.3l-0.1-0.4h0c-0.3-0.9-0.4-1.6-0.6-2.3l-0.1-0.5
		c-0.2-0.9-0.3-1.7-0.4-2.4c0-0.2-0.1-0.6-0.1-1c-0.1-0.6-0.1-1.3-0.1-2c0-0.5,0-0.9,0-1.3c0-0.7,0.1-1.3,0.1-1.9
		c0-0.5,0.1-1.1,0.2-1.7c0.1-0.5,0.2-1,0.3-1.5c0.2-1,0.5-2.1,0.9-3.2c1.7-5,5.9-12.2,15.7-16.6c-0.3-6.2-0.5-12.5-0.5-19
		c0-17.7,1.4-32.5,4.2-44.3c4.5,1.7,8.7,2.6,12.5,2.6c3.8,0,7.5-1.1,10.9-3.2c6.6-8.7,9.9-18.9,9.9-30.5c0-13.3-4.2-25-12.5-35.2
		c-21.8-6.9-43.2-10.4-64.3-10.4c-21.9,0-43.3,3.8-64.2,11.5c-7.4,11.2-11.1,23.1-11.1,35.7c0,12.2,3.5,23.1,10.6,32.5
		c2.8,2.8,9,4.2,18.5,4.2c5.3,0,9-0.9,11.1-2.6c0,2.8-0.1,6.8-0.3,12c-0.2,5.2-0.3,10.1-0.3,14.6c0,38.6,4.9,74.4,14.7,107.6
		c9.8,33,22.6,60.2,38.5,81.7c0.1,0.1,0.2,0.3,0.3,0.4c4.3,5.7,8.7,11.1,13.2,16.2c-4.2,4.5-8.1,8.7-11.6,12.5
		c-8,8.6-13.9,15-15.4,16.6c0,0,0-0.1,0-0.1l-0.4,0.5c-10.5,13.6-4.9,33.2,8.8,43.7c13.6,10.5,33.2,8,43.7-5.7l5.1-6.6
		c2.2,4.7,5.6,9,10,12.3c0.6,0.5,1.3,0.9,2,1.4c0,0,0,0,0,0c13.3,8.7,31.1,6,41.2-6.4c0.2-0.2,0.4-0.4,0.5-0.6l5.2-6.8
		c1.5,3.1,3.5,6,5.9,8.6c1.3,1.4,2.6,2.7,4.1,3.8c0.6,0.5,1.3,0.9,2,1.4c0,0,0,0,0,0c13.5,8.9,31.7,6,41.8-7l4.8-6.3
		c1.8,3.5,4.3,6.8,7.3,9.7c0.1,0.1,0.2,0.2,0.4,0.4c0.7,0.7,1.5,1.3,2.3,2c0.5,0.4,1.1,0.8,1.7,1.2c10.6,7.1,24.3,6.9,34.6,0.1
		c0,0,0,0.1-0.1,0.1c0.7-0.4,1.3-0.9,2-1.4c13.6-10.5,20.8-30.1,10.3-43.7L830.5,651z"/>
</g>
</svg>
